<svg width="122" height="36" viewBox="0 0 122 36" fill="none" xmlns="http://www.w3.org/2000/svg">
<path d="M0 18.9365L5.49514 18.383C5.81141 20.2016 6.48347 21.5457 7.51134 22.3759C8.53921 23.2456 9.88334 23.641 11.6228 23.641C13.4413 23.641 14.825 23.2456 15.7343 22.4945C16.6436 21.7434 17.118 20.8341 17.118 19.8458C17.118 19.2132 16.9203 18.6598 16.525 18.1854C16.1296 17.711 15.4576 17.3156 14.5088 16.9994C13.8367 16.7622 12.3344 16.3668 10.0019 15.8134C6.99741 15.1017 4.86261 14.1925 3.63707 13.1251C1.93714 11.6228 1.0674 9.76474 1.0674 7.62994C1.0674 6.24627 1.46274 4.94167 2.29294 3.71614C3.0836 2.4906 4.26961 1.58134 5.77187 0.948801C7.27414 0.316267 9.13221 0 11.267 0C14.7855 0 17.3947 0.751134 19.1737 2.29294C20.9527 3.7952 21.862 5.85094 21.941 8.38108L16.3273 8.57874C16.0901 7.15554 15.5762 6.16721 14.7855 5.53467C13.9948 4.90214 12.8088 4.58587 11.2275 4.58587C9.60661 4.58587 8.34154 4.90214 7.39274 5.57421C6.79974 6.00907 6.48347 6.56254 6.48347 7.27414C6.48347 7.90668 6.76021 8.46014 7.31368 8.93454C8.02528 9.52754 9.72521 10.1205 12.4925 10.7531C15.2204 11.3856 17.2366 12.0577 18.5807 12.7297C19.8853 13.4018 20.9132 14.3506 21.6643 15.5366C22.4154 16.7226 22.7712 18.1854 22.7712 19.9248C22.7712 21.5062 22.3364 22.9689 21.4271 24.3526C20.5178 25.7362 19.2923 26.7641 17.6714 27.4362C16.0506 28.1082 14.0344 28.4245 11.5833 28.4245C8.06481 28.4245 5.33701 27.6338 3.4394 26.013C1.5418 24.3921 0.395334 22.0596 0.0395334 18.976L0 18.9365Z" fill="#0D284F"/>
<path d="M31.192 27.9502L24.8271 8.06494H30.006L33.8012 21.111L37.2802 8.06494H42.4195L45.7798 21.111L49.6541 8.06494H54.9516L48.4286 27.9502H43.2892L39.8103 15.1414L36.3709 27.9502H31.192Z" fill="#0D284F"/>
<path d="M67.2855 18.3829C66.6134 18.6201 65.5065 18.8968 64.0437 19.1736C62.5415 19.4898 61.5927 19.8061 61.1183 20.0828C60.4067 20.5572 60.0904 21.1898 60.0904 21.9409C60.0904 22.692 60.3671 23.3246 60.9206 23.878C61.4741 24.4315 62.1857 24.6687 63.0554 24.6687C64.0042 24.6687 64.953 24.3524 65.8227 23.7199C66.4553 23.2455 66.8901 22.6525 67.0878 21.9804C67.2459 21.5456 67.2855 20.6758 67.2855 19.4108V18.3434V18.3829ZM60.0904 14.1133L55.2673 13.204C55.8208 11.2669 56.7696 9.8437 58.0742 8.8949C59.4183 7.9461 61.395 7.51123 64.0042 7.51123C66.3762 7.51123 68.1552 7.78796 69.3412 8.34143C70.5272 8.8949 71.3179 9.6065 71.7923 10.4762C72.2667 11.346 72.5039 12.8878 72.5039 15.1807L72.4248 21.3479C72.4248 23.0874 72.5039 24.392 72.7016 25.2222C72.8597 26.0524 73.2155 26.9617 73.6899 27.9104H68.3529C68.1947 27.5547 68.0366 27.0407 67.8389 26.3686C67.7599 26.0524 67.6808 25.8547 67.6413 25.7756C66.732 26.6454 65.7437 27.3174 64.7158 27.7523C63.6879 28.1872 62.581 28.4244 61.395 28.4244C59.2997 28.4244 57.6789 27.8709 56.4929 26.764C55.3069 25.657 54.7139 24.2338 54.7139 22.5339C54.7139 21.427 54.9906 20.3991 55.5441 19.5294C56.0975 18.6596 56.8487 17.9876 57.837 17.5132C58.8253 17.0388 60.2485 16.6434 62.1066 16.2876C64.5972 15.8132 66.3367 15.3784 67.2855 14.983V14.4691C67.2855 13.4412 67.0483 12.7296 66.5343 12.2948C66.0204 11.8599 65.0716 11.6622 63.6484 11.6622C62.6996 11.6622 61.9485 11.8599 61.395 12.2157C60.8415 12.5715 60.4067 13.2436 60.0904 14.1924V14.1133Z" fill="#0D284F"/>
<path d="M81.4391 17.6318C81.4391 19.8852 81.8739 21.5456 82.7832 22.613C83.6925 23.6804 84.7599 24.2339 86.0645 24.2339C87.29 24.2339 88.3179 23.7595 89.1481 22.7711C89.9783 21.7828 90.3736 20.1619 90.3736 17.9085C90.3736 15.8133 89.9388 14.2319 89.1085 13.2436C88.2783 12.2157 87.2109 11.7018 85.9854 11.7018C84.6808 11.7018 83.6134 12.2157 82.7437 13.2041C81.8739 14.1924 81.4786 15.6947 81.4786 17.6713L81.4391 17.6318ZM76.1416 8.02518H81.1623V10.9507C81.7949 9.96232 82.6646 9.13212 83.7715 8.49958C84.8785 7.86705 86.104 7.55078 87.4481 7.55078C89.7806 7.55078 91.7573 8.46005 93.4177 10.2786C95.0386 12.0971 95.8688 14.6273 95.8688 17.869C95.8688 21.1898 95.0386 23.799 93.4177 25.6571C91.7573 27.5151 89.7806 28.4244 87.4481 28.4244C86.3412 28.4244 85.3133 28.1872 84.4041 27.7523C83.4948 27.3175 82.546 26.5663 81.5577 25.4989V35.5404H76.2207V8.02518H76.1416Z" fill="#0D284F"/>
<path d="M107.768 22.8108L113.223 27.1595L107.768 31.5081V22.8108Z" fill="#698AFF"/>
<path d="M103.894 19.727V2.96484H98.873V19.8851C98.873 21.8618 99.3079 23.5617 100.178 25.0245C101.047 26.4872 102.312 27.6337 103.894 28.4243C105.436 29.1755 107.254 29.5708 109.27 29.6103V25.2617C107.57 25.2221 106.226 24.7477 105.317 23.8385C104.329 22.8897 103.854 21.5455 103.854 19.727H103.894Z" fill="#698AFF"/>
<path d="M115.24 7.63013V19.7273C115.24 21.5063 114.726 22.89 113.737 23.8388C113.224 24.3132 112.631 24.669 111.919 24.9062L114.765 27.1596L111.958 29.413C113.105 29.2154 114.212 28.8991 115.161 28.4247C116.782 27.634 118.047 26.4875 118.916 25.0248C119.786 23.5621 120.221 21.8621 120.221 19.8855V7.63013H115.2H115.24Z" fill="#0D284F"/>
<path d="M113.303 8.49955L117.651 3.04395L122 8.49955H113.303Z" fill="#0D284F"/>
</svg>
