<svg width="141" height="49" viewBox="0 0 141 49" fill="none" xmlns="http://www.w3.org/2000/svg">
<rect y="12.4404" width="29" height="40" rx="8" transform="rotate(-25.4031 0 12.4404)" fill="#698AFF"/>
<path opacity="0.5" d="M32 2.50001C39.9876 -0.107749 41.6287 4.01132 39.5 21L32 2.50001Z" fill="#698AFF"/>
<path opacity="0.2" d="M44.8962 5.66674C53.2802 6.22422 53.2677 10.6582 44.96 25.6291L44.8962 5.66674Z" fill="#698AFF"/>
<path d="M64.44 33.168C63.272 33.168 62.216 32.968 61.272 32.568C60.344 32.168 59.608 31.592 59.064 30.84C58.52 30.088 58.24 29.2 58.224 28.176H61.824C61.872 28.864 62.112 29.408 62.544 29.808C62.992 30.208 63.6 30.408 64.368 30.408C65.152 30.408 65.768 30.224 66.216 29.856C66.664 29.472 66.888 28.976 66.888 28.368C66.888 27.872 66.736 27.464 66.432 27.144C66.128 26.824 65.744 26.576 65.28 26.4C64.832 26.208 64.208 26 63.408 25.776C62.32 25.456 61.432 25.144 60.744 24.84C60.072 24.52 59.488 24.048 58.992 23.424C58.512 22.784 58.272 21.936 58.272 20.88C58.272 19.888 58.52 19.024 59.016 18.288C59.512 17.552 60.208 16.992 61.104 16.608C62 16.208 63.024 16.008 64.176 16.008C65.904 16.008 67.304 16.432 68.376 17.28C69.464 18.112 70.064 19.28 70.176 20.784H66.48C66.448 20.208 66.2 19.736 65.736 19.368C65.288 18.984 64.688 18.792 63.936 18.792C63.28 18.792 62.752 18.96 62.352 19.296C61.968 19.632 61.776 20.12 61.776 20.76C61.776 21.208 61.92 21.584 62.208 21.888C62.512 22.176 62.88 22.416 63.312 22.608C63.76 22.784 64.384 22.992 65.184 23.232C66.272 23.552 67.16 23.872 67.848 24.192C68.536 24.512 69.128 24.992 69.624 25.632C70.12 26.272 70.368 27.112 70.368 28.152C70.368 29.048 70.136 29.88 69.672 30.648C69.208 31.416 68.528 32.032 67.632 32.496C66.736 32.944 65.672 33.168 64.44 33.168ZM91.473 19.704L87.585 33H83.961L81.537 23.712L79.113 33H75.465L71.553 19.704H74.961L77.313 29.832L79.857 19.704H83.409L85.905 29.808L88.257 19.704H91.473ZM92.187 26.304C92.187 24.96 92.451 23.768 92.979 22.728C93.523 21.688 94.251 20.888 95.163 20.328C96.091 19.768 97.123 19.488 98.259 19.488C99.251 19.488 100.115 19.688 100.851 20.088C101.603 20.488 102.203 20.992 102.651 21.6V19.704H106.035V33H102.651V31.056C102.219 31.68 101.619 32.2 100.851 32.616C100.099 33.016 99.227 33.216 98.235 33.216C97.115 33.216 96.091 32.928 95.163 32.352C94.251 31.776 93.523 30.968 92.979 29.928C92.451 28.872 92.187 27.664 92.187 26.304ZM102.651 26.352C102.651 25.536 102.491 24.84 102.171 24.264C101.851 23.672 101.419 23.224 100.875 22.92C100.331 22.6 99.747 22.44 99.123 22.44C98.499 22.44 97.923 22.592 97.395 22.896C96.867 23.2 96.435 23.648 96.099 24.24C95.779 24.816 95.619 25.504 95.619 26.304C95.619 27.104 95.779 27.808 96.099 28.416C96.435 29.008 96.867 29.464 97.395 29.784C97.939 30.104 98.515 30.264 99.123 30.264C99.747 30.264 100.331 30.112 100.875 29.808C101.419 29.488 101.851 29.04 102.171 28.464C102.491 27.872 102.651 27.168 102.651 26.352ZM112.437 21.624C112.869 21.016 113.461 20.512 114.213 20.112C114.981 19.696 115.853 19.488 116.829 19.488C117.965 19.488 118.989 19.768 119.901 20.328C120.829 20.888 121.557 21.688 122.085 22.728C122.629 23.752 122.901 24.944 122.901 26.304C122.901 27.664 122.629 28.872 122.085 29.928C121.557 30.968 120.829 31.776 119.901 32.352C118.989 32.928 117.965 33.216 116.829 33.216C115.853 33.216 114.989 33.016 114.237 32.616C113.501 32.216 112.901 31.712 112.437 31.104V39.336H109.077V19.704H112.437V21.624ZM119.469 26.304C119.469 25.504 119.301 24.816 118.965 24.24C118.645 23.648 118.213 23.2 117.669 22.896C117.141 22.592 116.565 22.44 115.941 22.44C115.333 22.44 114.757 22.6 114.213 22.92C113.685 23.224 113.253 23.672 112.917 24.264C112.597 24.856 112.437 25.552 112.437 26.352C112.437 27.152 112.597 27.848 112.917 28.44C113.253 29.032 113.685 29.488 114.213 29.808C114.757 30.112 115.333 30.264 115.941 30.264C116.565 30.264 117.141 30.104 117.669 29.784C118.213 29.464 118.645 29.008 118.965 28.416C119.301 27.824 119.469 27.12 119.469 26.304ZM128.414 16.248V26.616C128.414 27.752 128.71 28.624 129.302 29.232C129.894 29.824 130.726 30.12 131.798 30.12C132.886 30.12 133.726 29.824 134.318 29.232C134.91 28.624 135.206 27.752 135.206 26.616V16.248H138.59V26.592C138.59 28.016 138.278 29.224 137.654 30.216C137.046 31.192 136.222 31.928 135.182 32.424C134.158 32.92 133.014 33.168 131.75 33.168C130.502 33.168 129.366 32.92 128.342 32.424C127.334 31.928 126.534 31.192 125.942 30.216C125.35 29.224 125.054 28.016 125.054 26.592V16.248H128.414Z" fill="black"/>
</svg>
