<svg width="122" height="36" viewBox="0 0 122 36" fill="none" xmlns="http://www.w3.org/2000/svg">
<path d="M0 18.9365L5.49514 18.383C5.81141 20.2016 6.48347 21.5457 7.51134 22.3759C8.53921 23.2456 9.88334 23.641 11.6228 23.641C13.4413 23.641 14.825 23.2456 15.7343 22.4945C16.6436 21.7434 17.118 20.8341 17.118 19.8458C17.118 19.2132 16.9203 18.6598 16.525 18.1854C16.1296 17.711 15.4576 17.3156 14.5088 16.9994C13.8367 16.7622 12.3344 16.3668 10.0019 15.8134C6.99741 15.1017 4.86261 14.1925 3.63707 13.1251C1.93714 11.6228 1.0674 9.76474 1.0674 7.62994C1.0674 6.24627 1.46274 4.94167 2.29294 3.71614C3.0836 2.4906 4.26961 1.58134 5.77187 0.948801C7.27414 0.316267 9.13221 0 11.267 0C14.7855 0 17.3947 0.751134 19.1737 2.29294C20.9527 3.7952 21.862 5.85094 21.941 8.38108L16.3273 8.57874C16.0901 7.15554 15.5762 6.16721 14.7855 5.53467C13.9948 4.90214 12.8088 4.58587 11.2275 4.58587C9.60661 4.58587 8.34154 4.90214 7.39274 5.57421C6.79974 6.00907 6.48347 6.56254 6.48347 7.27414C6.48347 7.90668 6.76021 8.46014 7.31368 8.93454C8.02528 9.52754 9.72521 10.1205 12.4925 10.7531C15.2204 11.3856 17.2366 12.0577 18.5807 12.7297C19.8853 13.4018 20.9132 14.3506 21.6643 15.5366C22.4154 16.7226 22.7712 18.1854 22.7712 19.9248C22.7712 21.5062 22.3364 22.9689 21.4271 24.3526C20.5178 25.7362 19.2923 26.7641 17.6714 27.4362C16.0506 28.1082 14.0344 28.4245 11.5833 28.4245C8.06481 28.4245 5.33701 27.6338 3.4394 26.013C1.5418 24.3921 0.395334 22.0596 0.0395334 18.976L0 18.9365Z" fill="white"/>
<path d="M31.192 27.9497L24.8271 8.06445H30.006L33.8012 21.1105L37.2802 8.06445H42.4195L45.7798 21.1105L49.6541 8.06445H54.9516L48.4286 27.9497H43.2892L39.8103 15.1409L36.3709 27.9497H31.192Z" fill="white"/>
<path d="M67.286 18.3834C66.6139 18.6206 65.507 18.8973 64.0442 19.1741C62.542 19.4903 61.5932 19.8066 61.1188 20.0833C60.4072 20.5577 60.0909 21.1903 60.0909 21.9414C60.0909 22.6925 60.3676 23.3251 60.9211 23.8785C61.4746 24.432 62.1862 24.6692 63.0559 24.6692C64.0047 24.6692 64.9535 24.3529 65.8232 23.7204C66.4558 23.246 66.8906 22.653 67.0883 21.9809C67.2464 21.5461 67.286 20.6763 67.286 19.4113V18.3439V18.3834ZM60.0909 14.1138L55.2678 13.2045C55.8213 11.2674 56.7701 9.84419 58.0747 8.89539C59.4188 7.94659 61.3955 7.51172 64.0047 7.51172C66.3767 7.51172 68.1557 7.78845 69.3417 8.34192C70.5277 8.89539 71.3184 9.60699 71.7928 10.4767C72.2672 11.3465 72.5044 12.8883 72.5044 15.1812L72.4253 21.3484C72.4253 23.0879 72.5044 24.3925 72.702 25.2227C72.8602 26.0529 73.216 26.9621 73.6904 27.9109H68.3534C68.1952 27.5551 68.0371 27.0412 67.8394 26.3691C67.7604 26.0529 67.6813 25.8552 67.6418 25.7761C66.7325 26.6459 65.7442 27.3179 64.7163 27.7528C63.6884 28.1877 62.5815 28.4249 61.3955 28.4249C59.3002 28.4249 57.6794 27.8714 56.4934 26.7645C55.3074 25.6575 54.7144 24.2343 54.7144 22.5344C54.7144 21.4275 54.9911 20.3996 55.5446 19.5299C56.098 18.6601 56.8492 17.9881 57.8375 17.5137C58.8258 17.0393 60.249 16.6439 62.1071 16.2881C64.5977 15.8137 66.3372 15.3789 67.286 14.9835V14.4696C67.286 13.4417 67.0488 12.7301 66.5348 12.2953C66.0209 11.8604 65.0721 11.6627 63.6489 11.6627C62.7001 11.6627 61.949 11.8604 61.3955 12.2162C60.842 12.572 60.4072 13.2441 60.0909 14.1929V14.1138Z" fill="white"/>
<path d="M81.4391 17.6318C81.4391 19.8852 81.8739 21.5456 82.7832 22.613C83.6925 23.6804 84.7599 24.2339 86.0645 24.2339C87.29 24.2339 88.3179 23.7595 89.1481 22.7711C89.9783 21.7828 90.3736 20.1619 90.3736 17.9085C90.3736 15.8133 89.9388 14.2319 89.1085 13.2436C88.2783 12.2157 87.2109 11.7018 85.9854 11.7018C84.6808 11.7018 83.6134 12.2157 82.7437 13.2041C81.8739 14.1924 81.4786 15.6947 81.4786 17.6713L81.4391 17.6318ZM76.1416 8.02518H81.1623V10.9507C81.7949 9.96232 82.6646 9.13212 83.7715 8.49958C84.8785 7.86705 86.104 7.55078 87.4481 7.55078C89.7806 7.55078 91.7573 8.46005 93.4177 10.2786C95.0386 12.0971 95.8688 14.6273 95.8688 17.869C95.8688 21.1898 95.0386 23.799 93.4177 25.6571C91.7573 27.5151 89.7806 28.4244 87.4481 28.4244C86.3412 28.4244 85.3133 28.1872 84.4041 27.7523C83.4948 27.3175 82.546 26.5663 81.5577 25.4989V35.5404H76.2207V8.02518H76.1416Z" fill="white"/>
<path d="M107.768 22.8105L113.224 27.1592L107.768 31.5079V22.8105Z" fill="#698AFF"/>
<path d="M103.894 19.727V2.96484H98.873V19.8851C98.873 21.8618 99.3079 23.5617 100.178 25.0245C101.047 26.4872 102.312 27.6337 103.894 28.4243C105.436 29.1755 107.254 29.5708 109.27 29.6103V25.2617C107.57 25.2221 106.226 24.7477 105.317 23.8385C104.329 22.8897 103.854 21.5455 103.854 19.727H103.894Z" fill="#698AFF"/>
<path d="M115.24 7.62988V19.7271C115.24 21.5061 114.726 22.8898 113.737 23.8386C113.224 24.313 112.631 24.6688 111.919 24.906L114.765 27.1594L111.958 29.4128C113.105 29.2151 114.212 28.8988 115.161 28.4244C116.782 27.6338 118.047 26.4873 118.916 25.0246C119.786 23.5618 120.221 21.8619 120.221 19.8852V7.62988H115.2H115.24Z" fill="white"/>
<path d="M113.303 8.49955L117.651 3.04395L122 8.49955H113.303Z" fill="white"/>
</svg>
